<?xml version="1.0" standalone="no"?>
<!DOCTYPE svg PUBLIC "-//W3C//DTD SVG 20010904//EN"
 "http://www.w3.org/TR/2001/REC-SVG-20010904/DTD/svg10.dtd">
<svg version="1.0" xmlns="http://www.w3.org/2000/svg"
 width="1024.000000pt" height="1024.000000pt" viewBox="0 0 1024.000000 1024.000000"
 preserveAspectRatio="xMidYMid meet">

<g transform="translate(0.000000,1024.000000) scale(0.100000,-0.100000)"
fill="#000000" stroke="none">
<path d="M4756 8529 c-142 -19 -352 -106 -476 -198 -221 -163 -376 -396 -426
-641 -13 -67 -16 -114 -11 -221 5 -119 4 -139 -12 -165 -56 -92 -78 -292 -46
-413 19 -76 64 -168 94 -195 15 -13 21 -31 21 -60 1 -179 150 -373 320 -416
44 -11 46 -13 85 -97 21 -47 64 -120 94 -161 49 -67 52 -75 36 -84 -46 -26
-101 -88 -126 -143 l-27 -60 -89 -30 c-48 -16 -154 -62 -234 -102 -440 -219
-726 -502 -921 -912 -98 -204 -137 -303 -259 -661 l-107 -315 -70 145 c-89
184 -124 271 -172 436 -65 223 -100 478 -100 733 0 450 113 867 341 1263 228
397 531 718 917 974 l112 75 0 44 c0 58 -25 85 -78 85 -29 0 -61 -16 -157 -78
-600 -391 -1051 -1014 -1225 -1692 -172 -670 -84 -1393 243 -1994 27 -50 68
-119 92 -153 l43 -61 -19 -84 c-25 -109 -36 -358 -20 -452 31 -175 107 -325
248 -483 36 -40 82 -85 103 -100 32 -23 40 -37 50 -83 7 -30 30 -93 51 -139
105 -226 299 -393 544 -471 90 -28 308 -39 422 -20 147 23 295 92 352 162 31
38 39 109 17 142 -9 14 -16 29 -16 33 0 11 120 6 305 -14 193 -21 656 -24 810
-5 55 7 164 16 243 19 l142 6 -15 -29 c-19 -37 -19 -97 0 -134 21 -40 66 -72
166 -119 193 -90 491 -96 699 -14 251 100 434 300 514 565 15 48 31 88 36 90
27 9 178 172 225 243 147 221 186 457 126 777 l-19 108 43 65 c169 251 314
630 374 975 30 172 41 303 41 499 0 271 -30 480 -111 766 -88 316 -295 707
-522 988 -198 245 -412 435 -719 639 -109 72 -188 60 -188 -30 0 -45 18 -65
134 -142 168 -112 399 -313 545 -473 297 -327 532 -775 625 -1192 46 -204 60
-335 60 -565 0 -342 -50 -624 -165 -929 -51 -135 -169 -376 -178 -364 -4 4
-18 44 -31 88 -12 44 -63 197 -112 339 -200 579 -353 850 -616 1097 -193 180
-504 368 -759 459 -70 25 -93 37 -93 50 0 37 -76 133 -147 185 -12 9 -9 18 18
50 49 62 80 114 115 194 32 74 32 74 88 91 181 57 314 232 316 420 0 23 8 42
23 57 57 54 117 229 117 343 0 75 -29 201 -62 269 -19 40 -22 63 -23 210 -2
190 -15 252 -87 394 -56 112 -107 186 -192 275 -258 273 -649 407 -936 321
-30 -9 -50 -8 -101 4 -85 21 -198 28 -283 16z m286 -194 c45 -16 50 -16 135 6
258 64 545 -38 774 -277 78 -82 160 -202 189 -282 30 -80 50 -160 50 -201 0
-34 0 -35 -15 -14 -32 46 -78 63 -211 79 -70 8 -148 20 -173 26 -63 16 -169
60 -219 92 -50 32 -122 95 -122 107 0 5 14 9 31 9 64 0 118 58 92 99 -20 32
-55 42 -133 37 -98 -6 -191 -36 -269 -86 -34 -22 -64 -40 -66 -40 -2 0 -32 18
-67 40 -111 69 -239 101 -342 86 -55 -9 -76 -27 -76 -66 0 -37 33 -61 95 -68
26 -2 45 -10 45 -17 0 -22 -136 -118 -215 -151 -74 -31 -166 -53 -268 -64
-167 -18 -191 -27 -248 -97 l-27 -32 5 42 c15 143 61 266 142 385 128 189 322
328 551 393 82 24 269 21 342 -6z m-81 -561 c89 -37 189 -38 277 -2 l62 26 68
-67 c37 -37 95 -86 129 -109 61 -42 192 -104 246 -117 16 -4 35 -19 44 -32 31
-46 128 -481 112 -497 -2 -3 -15 -7 -29 -11 -23 -5 -27 -2 -37 37 -28 103
-128 204 -231 234 -154 45 -308 -23 -394 -173 -26 -47 -32 -52 -50 -42 -21 11
-101 8 -129 -5 -12 -5 -23 6 -44 49 -32 63 -91 122 -157 157 -36 19 -58 23
-133 23 -104 0 -151 -18 -230 -87 -46 -40 -105 -129 -105 -158 -1 -29 -16 -41
-44 -34 -31 7 -32 -4 20 239 52 241 73 295 113 295 34 1 186 71 265 124 77 51
176 145 176 167 0 12 -2 13 71 -17z m-571 -299 c0 -35 -86 -124 -164 -170 -54
-32 -63 -50 -80 -155 -11 -73 -13 -76 -56 -104 -54 -37 -120 -104 -120 -122 0
-27 -18 -14 -24 17 -30 151 26 309 143 407 85 70 115 87 201 109 97 24 100 25
100 18z m1545 -21 c74 -18 146 -66 224 -150 90 -96 126 -218 101 -340 l-13
-59 -21 29 c-38 54 -98 116 -131 136 -28 17 -33 27 -39 73 -13 97 -27 127 -80
171 -86 71 -147 129 -158 149 -11 21 -6 21 117 -9z m-1141 -367 c97 -53 131
-180 77 -285 -24 -48 -46 -66 -105 -93 -151 -66 -316 77 -278 241 15 63 40
101 88 131 72 44 146 46 218 6z m822 -2 c79 -46 121 -155 94 -241 -30 -94
-104 -148 -205 -148 -105 -1 -185 65 -204 167 -34 185 153 317 315 222z m-435
-262 c24 -93 89 -172 183 -221 44 -23 63 -27 141 -27 71 0 100 5 136 21 87 41
166 131 190 219 9 30 14 35 39 35 27 0 29 -3 25 -27 -3 -16 -14 -84 -25 -153
-59 -362 -138 -554 -289 -705 -201 -198 -377 -271 -565 -232 -142 29 -290 120
-419 257 -93 99 -135 172 -182 316 -33 99 -94 379 -109 497 -6 47 -6 47 24 47
24 0 30 -4 30 -21 0 -36 62 -139 108 -179 67 -59 139 -83 237 -78 68 4 90 9
137 36 90 52 144 120 167 212 7 25 14 51 16 58 3 9 24 12 72 10 l68 -3 16 -62z
m-1025 -128 c9 -55 25 -140 35 -189 11 -49 18 -90 16 -92 -10 -10 -81 65 -105
110 -22 43 -26 64 -27 131 0 69 4 89 29 140 28 57 30 58 33 30 2 -16 11 -75
19 -130z m1955 66 c28 -75 22 -173 -15 -236 -29 -48 -93 -121 -101 -113 -3 3
2 38 10 79 16 73 54 319 55 349 1 25 27 -17 51 -79z m-431 -1080 l55 -18 13
-84 c28 -186 -18 -357 -129 -474 -61 -65 -119 -89 -194 -83 -85 7 -161 81
-206 198 l-18 48 46 11 c73 19 182 79 238 132 64 60 112 148 127 229 5 33 11
60 12 60 0 0 26 -9 56 -19z m-1086 -58 c39 -159 171 -290 341 -338 33 -10 61
-19 63 -20 2 -2 -10 -32 -26 -67 -34 -76 -93 -145 -139 -165 -79 -33 -190 1
-256 78 -93 108 -134 248 -123 428 3 63 10 119 15 124 9 9 62 24 92 26 12 1
21 -17 33 -66z m361 -58 c76 -19 214 -19 290 0 33 9 90 30 128 47 37 17 69 29
72 26 3 -2 -6 -27 -20 -55 -26 -51 -94 -108 -160 -133 -88 -34 -243 -31 -332
7 -89 37 -152 98 -168 166 l-7 27 68 -34 c38 -20 96 -42 129 -51z m1055 -91
c19 -7 42 -13 51 -14 9 0 22 -6 29 -14 24 -30 170 -828 170 -935 l0 -32 -117
3 -118 3 -7 145 c-11 249 -56 783 -72 853 -4 14 -1 17 12 11 9 -3 33 -13 52
-20z m-1760 -1 c0 -10 -11 -133 -24 -273 -13 -140 -29 -336 -35 -435 -7 -99
-14 -204 -17 -232 l-5 -53 -115 0 c-112 0 -114 0 -114 23 0 80 146 930 162
942 6 4 124 42 136 44 6 0 12 -7 12 -16z m2150 -236 c123 -82 291 -221 356
-294 100 -112 174 -227 172 -268 -2 -44 29 -113 54 -121 10 -3 30 -28 44 -55
122 -242 376 -1043 415 -1308 14 -102 7 -286 -15 -355 -9 -27 -30 -75 -47
-105 -32 -57 -108 -151 -121 -151 -5 0 -8 13 -8 30 0 68 -41 212 -86 302 -29
58 -115 173 -163 216 -49 46 -130 98 -188 121 -50 20 -49 22 22 40 53 14 198
14 270 -1 55 -11 59 -10 77 11 10 13 18 34 18 46 0 30 -49 71 -103 87 -65 19
-231 16 -302 -5 -67 -20 -192 -75 -216 -94 -25 -20 -29 -16 -29 29 0 37 6 48
47 90 26 26 52 48 59 48 6 0 21 9 34 20 12 11 27 17 31 14 5 -3 9 0 9 6 0 7 5
10 12 8 6 -2 19 3 29 13 10 10 42 19 83 24 74 7 96 23 96 65 0 44 -31 60 -116
60 -85 0 -179 -26 -247 -70 -32 -20 -49 -26 -51 -17 -2 6 -9 82 -16 167 -23
319 -30 390 -55 575 -41 302 -132 822 -161 919 -7 22 -10 23 96 -47z m-2534
-90 c-14 -67 -39 -207 -56 -312 -17 -104 -35 -210 -40 -235 -18 -84 -60 -428
-86 -705 -9 -99 -19 -204 -23 -233 l-6 -54 -27 21 c-60 48 -138 73 -240 79
-118 6 -148 -7 -148 -63 0 -41 5 -44 81 -55 74 -11 151 -39 142 -53 -3 -5 -1
-7 4 -4 17 10 64 -18 121 -72 48 -46 52 -54 52 -96 l0 -45 -54 35 c-137 87
-373 119 -519 69 -26 -9 -54 -26 -62 -37 -21 -30 -19 -71 5 -92 17 -16 25 -16
86 -5 75 14 252 9 297 -9 29 -11 29 -11 -50 -51 -43 -22 -104 -62 -135 -90
-130 -115 -239 -338 -263 -538 -1 -12 -5 -25 -7 -28 -7 -7 -81 92 -116 156
-57 103 -67 157 -66 340 l0 165 53 199 c76 291 232 766 307 936 98 225 130
290 182 375 78 128 150 214 255 306 104 91 330 246 335 229 2 -5 -8 -65 -22
-133z m1259 -97 c23 -52 107 -134 170 -168 45 -24 60 -27 150 -27 92 1 105 4
166 33 69 33 122 78 169 143 26 37 28 38 33 17 11 -45 40 -548 33 -555 -10
-10 -1282 -17 -1405 -8 l-93 7 5 47 c4 25 11 141 17 256 6 116 13 225 16 244
l5 33 16 -23 c26 -39 96 -109 131 -130 17 -12 29 -26 26 -31 -4 -7 -2 -8 4 -4
6 3 39 -3 74 -15 171 -58 352 17 431 179 12 23 24 42 27 42 4 0 15 -18 25 -40z
m1170 -782 c5 -39 17 -173 45 -517 5 -64 10 -227 10 -363 l0 -248 -124 0 c-98
0 -126 3 -136 15 -24 29 -125 83 -194 104 -81 25 -178 27 -259 6 l-58 -15 -54
34 c-73 48 -136 68 -229 74 -125 8 -212 -18 -308 -91 l-44 -34 -40 35 c-60 53
-111 82 -187 108 -198 67 -415 24 -566 -112 -33 -30 -69 -70 -81 -89 l-22 -35
-98 0 -98 0 -7 103 c-10 156 25 752 61 1025 l5 42 1189 0 1189 0 6 -42z
m-1643 -1038 c66 -20 170 -87 187 -119 9 -16 3 -19 -62 -31 -85 -14 -195 -65
-264 -119 -64 -51 -135 -143 -167 -215 -28 -62 -56 -184 -56 -240 0 -30 -4
-35 -27 -39 -55 -10 -322 -2 -333 9 -19 19 -29 82 -19 119 22 79 117 111 177
60 17 -14 40 -25 52 -25 28 0 115 43 158 79 40 32 58 93 35 116 -23 24 -81 19
-115 -10 -36 -30 -38 -30 -66 -5 -25 23 -31 10 -6 -14 14 -14 14 -16 0 -16
-49 0 -47 135 4 236 54 104 169 198 277 223 66 16 158 12 225 -9z m709 -41
c61 -21 63 -28 15 -68 -41 -33 -97 -96 -115 -130 -6 -10 -24 -6 -84 24 -42 20
-93 39 -112 42 -20 3 -38 9 -40 14 -10 15 48 69 107 98 50 25 73 31 128 31 37
0 82 -5 101 -11z m-1682 -95 c23 -9 41 -18 41 -21 0 -16 -136 -168 -149 -166
-9 1 -28 5 -44 9 -54 13 -76 -39 -37 -89 11 -14 20 -28 20 -31 0 -3 -27 -43
-61 -88 -78 -106 -109 -168 -116 -233 -11 -102 32 -180 189 -341 58 -59 98
-109 98 -121 0 -22 7 -26 153 -84 91 -36 188 -58 381 -84 56 -8 52 -15 -27
-44 -94 -34 -142 -42 -276 -42 -249 0 -434 84 -575 259 -128 160 -183 356
-157 557 35 260 179 471 364 531 50 17 139 11 196 -12z m2226 -12 c154 -73
242 -237 165 -307 -18 -16 -22 -17 -37 -3 -36 30 -131 78 -157 78 -29 0 -66
-31 -66 -56 0 -32 22 -53 108 -108 130 -82 138 -84 200 -45 63 39 107 35 146
-12 14 -17 26 -34 27 -37 0 -4 2 -16 4 -27 7 -34 -15 -86 -40 -95 -13 -5 -36
-7 -52 -6 -15 2 -92 4 -170 5 l-143 1 0 68 c0 74 -25 141 -74 199 -62 74 -190
96 -274 48 l-43 -25 -55 41 c-30 23 -54 46 -54 53 1 27 42 98 81 141 81 87
172 126 289 122 61 -2 88 -9 145 -35z m865 -2 c117 -59 226 -199 276 -355 48
-146 45 -363 -7 -503 -80 -219 -267 -386 -503 -449 -80 -21 -286 -21 -376 0
-77 19 -163 55 -155 66 2 5 43 12 91 16 131 11 257 40 377 87 97 38 107 45
103 64 -5 18 17 45 110 139 140 141 174 201 174 305 0 80 -22 129 -114 259
-64 89 -66 94 -50 112 9 10 17 36 18 56 1 36 -1 38 -29 37 -16 -1 -39 -5 -50
-8 -15 -5 -24 0 -37 21 -9 15 -37 52 -62 81 -25 30 -46 60 -46 68 0 7 21 20
48 29 70 22 157 13 232 -25z m-421 -128 c39 -43 341 -467 341 -480 0 -13 -72
-16 -166 -6 l-59 6 0 67 c-1 112 -61 208 -163 263 -19 10 -32 25 -31 35 0 11
3 13 6 6 2 -7 9 -13 14 -13 5 0 4 10 -3 23 -7 12 -19 43 -28 69 l-17 47 26 4
c14 2 32 5 39 6 8 0 26 -12 41 -27z m-2403 -19 c-3 -21 -6 -54 -6 -73 -1 -32
-6 -37 -53 -60 -94 -46 -163 -175 -155 -289 l3 -46 -108 -3 c-87 -3 -108 -1
-113 11 -6 16 38 79 239 350 l110 147 45 0 45 0 -7 -37z m1037 -18 c89 -23
166 -67 271 -154 115 -95 176 -138 216 -153 26 -9 35 -6 72 21 53 39 95 41
137 5 39 -32 50 -83 27 -130 -12 -26 -23 -34 -43 -36 -16 -1 -290 -2 -610 -2
l-583 -1 -6 42 c-9 61 11 139 56 215 97 163 282 240 463 193z m1585 -637 c-2
-3 -38 -43 -81 -87 l-78 -81 -1294 0 c-821 0 -1303 4 -1319 10 -15 5 -41 26
-59 47 -17 20 -39 44 -47 53 -8 9 -23 26 -33 37 l-18 21 147 1 c82 1 149 3
150 4 6 6 2634 1 2632 -5z"/>
<path d="M4661 6948 c-39 -21 -65 -62 -57 -93 9 -35 32 -42 60 -16 29 27 60
27 98 -1 30 -21 31 -21 44 -3 36 50 -4 114 -76 121 -26 3 -55 -1 -69 -8z"/>
<path d="M5432 6950 c-29 -12 -61 -49 -62 -71 0 -9 8 -27 19 -40 l18 -23 32
27 c18 15 36 27 39 27 4 0 24 -12 45 -26 47 -32 67 -26 67 20 0 52 -35 87 -90
92 -25 2 -56 -1 -68 -6z"/>
<path d="M4980 6491 c-17 -32 -11 -61 17 -87 61 -57 156 -54 207 7 29 34 32
56 13 83 -13 17 -15 17 -48 -3 -43 -26 -95 -27 -134 -1 -37 25 -42 25 -55 1z"/>
<path d="M4798 6317 c-45 -35 -56 -63 -38 -96 12 -23 49 -28 67 -10 9 9 27 1
71 -28 70 -47 155 -68 241 -60 65 5 152 41 189 77 18 17 26 19 37 10 23 -19
68 -8 84 22 14 25 14 29 -4 54 -11 14 -37 36 -57 48 l-37 21 -33 -32 c-63 -60
-113 -78 -213 -78 -101 0 -157 20 -211 75 -16 16 -34 30 -41 30 -6 0 -31 -15
-55 -33z"/>
<path d="M3547 3399 c7 -7 15 -10 18 -7 3 3 -2 9 -12 12 -14 6 -15 5 -6 -5z"/>
<path d="M5036 4888 c-54 -77 56 -165 113 -92 25 32 27 61 5 92 -12 17 -25 22
-59 22 -34 0 -47 -5 -59 -22z"/>
<path d="M5037 4632 c-39 -43 -5 -112 53 -112 58 0 93 75 54 114 -22 22 -87
21 -107 -2z"/>
<path d="M4460 3842 c-49 -15 -68 -83 -32 -115 45 -41 131 5 117 61 -4 15 -11
32 -16 38 -11 14 -49 22 -69 16z"/>
<path d="M5685 3828 c-27 -15 -35 -28 -35 -60 0 -35 32 -68 65 -68 33 0 75 42
75 74 0 27 -41 66 -69 66 -9 0 -25 -6 -36 -12z"/>
<path d="M2342 6954 c-29 -20 -30 -74 -2 -99 27 -24 79 -24 96 0 20 27 17 79
-4 98 -23 21 -61 22 -90 1z"/>
<path d="M7762 6954 c-52 -36 -5 -134 58 -119 54 13 73 65 40 108 -25 31 -63
36 -98 11z"/>
<path d="M1886 6148 c-35 -49 -4 -111 54 -111 61 0 92 71 50 113 -28 28 -84
27 -104 -2z"/>
<path d="M8206 6148 c-54 -76 47 -157 107 -86 39 46 6 108 -57 108 -25 0 -39
-7 -50 -22z"/>
<path d="M2861 5804 c-15 -57 -55 -99 -110 -114 -53 -14 -49 -30 15 -52 54
-19 71 -39 95 -106 8 -25 20 -47 25 -49 6 -2 16 16 23 39 24 80 37 95 98 115
31 11 58 24 60 30 2 6 -17 16 -43 22 -58 15 -98 55 -113 116 -15 59 -35 58
-50 -1z"/>
<path d="M7261 5806 c-16 -65 -51 -102 -112 -116 -27 -7 -48 -17 -47 -22 2 -6
27 -19 55 -29 61 -23 79 -42 101 -105 10 -26 22 -49 28 -51 6 -2 18 23 27 56
19 66 37 84 109 105 23 7 43 17 45 23 2 5 -19 15 -47 22 -59 15 -95 53 -111
117 -14 56 -34 56 -48 0z"/>
<path d="M2554 5144 c-15 -78 26 -197 77 -225 23 -12 22 -14 -4 -112 l-13 -48
-32 44 c-38 54 -86 78 -109 55 -34 -35 -25 -164 17 -248 10 -19 34 -51 54 -69
23 -22 36 -44 36 -60 0 -36 26 -129 40 -147 22 -26 43 -17 38 17 -4 27 0 32
33 50 110 56 175 163 116 190 -34 15 -99 -5 -143 -43 l-36 -31 8 39 c10 60 20
72 82 103 75 38 136 100 156 158 21 60 20 70 -4 76 -45 12 -104 -15 -162 -74
-47 -48 -55 -53 -48 -31 23 81 38 101 94 128 58 27 130 96 146 140 16 41 12
82 -8 88 -38 12 -142 -36 -163 -77 -11 -19 -13 -18 -35 25 -28 56 -67 88 -105
88 -24 0 -29 -5 -35 -36z"/>
<path d="M7543 5152 c-17 -15 -38 -42 -47 -60 l-17 -33 -27 26 c-36 36 -75 55
-116 57 -65 2 -73 -28 -26 -109 35 -61 82 -102 142 -123 40 -14 45 -21 71 -84
15 -38 25 -71 22 -74 -3 -3 -5 0 -5 7 0 16 -79 100 -109 116 -26 13 -57 18
-98 16 -28 -1 -30 -25 -8 -79 22 -52 90 -119 157 -153 66 -33 66 -34 74 -93
l7 -47 -31 29 c-55 52 -153 65 -167 22 -14 -45 70 -147 142 -171 29 -9 33 -15
33 -45 0 -35 5 -40 28 -26 12 8 52 132 52 163 0 9 17 34 38 55 52 52 82 135
82 222 0 40 -5 73 -12 80 -29 29 -91 0 -127 -59 l-17 -28 -23 70 -24 69 26 20
c42 33 77 115 77 180 0 31 -5 61 -12 68 -20 20 -54 14 -85 -16z"/>
<path d="M2550 4198 c-11 -12 -20 -30 -20 -40 0 -25 44 -68 70 -68 24 0 70 42
70 63 0 8 -9 26 -21 41 -26 33 -70 35 -99 4z"/>
<path d="M7547 4202 c-25 -27 -22 -78 5 -96 12 -9 30 -16 39 -16 25 0 57 31
64 62 13 54 -70 92 -108 50z"/>
</g>
</svg>
